<?xml version="1.0" encoding="UTF-8"?>
<svg width="200px" height="43px" viewBox="0 0 200 43" version="1.1" xmlns="http://www.w3.org/2000/svg" xmlns:xlink="http://www.w3.org/1999/xlink">
    <!-- Generator: Sketch 55.2 (78181) - https://sketchapp.com -->
    <title>Untitled</title>
    <desc>Created with Sketch.</desc>
    <g id="Page-1" stroke="none" stroke-width="1" fill="none" fill-rule="evenodd">
        <g id="Group" transform="translate(0.000000, 0.994059)" fill-rule="nonzero">
            <path d="M52.51,22.1259406 C55.58,21.7059406 56.66,18.5659406 56.34,15.5459406 C56.06,12.8859406 54.27,9.84594064 51.34,10.1159406 C48.41,10.3859406 46.75,13.1159406 46.77,16.4359406 C46.78,19.5459406 48.94,22.6159406 52.51,22.1259406 Z" id="Path" fill="#2932E1"></path>
            <path d="M61.09,12.4159406 C64.09,12.1259406 65.21,9.00594064 65.09,5.93594064 C65.06,2.56594064 63.21,-0.144059363 60.29,0.0059406365 C57.69,0.135940637 55.6,2.74594064 55.49,6.21594064 C55.38,9.84594064 57.71,12.7359406 61.09,12.4159406 Z" id="Path" fill="#2932E1"></path>
            <path d="M80.53,22.1259406 C77.45,21.7059406 76.38,18.5659406 76.7,15.5459406 C76.98,12.8859406 78.77,9.84594064 81.7,10.1159406 C84.63,10.3859406 86.28,13.1159406 86.2700452,16.4359406 C86.26,19.5459406 84.1,22.6159406 80.53,22.1259406 Z" id="Path" fill="#2932E1"></path>
            <path d="M72,12.4159406 C69,12.1259406 67.88,9.00594064 68,5.93594064 C68,2.56594064 69.83,-0.144059363 72.75,0.0059406365 C75.34,0.135940637 77.44,2.74594064 77.54,6.21594064 C77.66,9.84594064 75.33,12.7359406 72,12.4159406 Z" id="Path" fill="#2932E1"></path>
            <path d="M78.5,25.6259406 C76.2530751,23.9108867 74.3123774,21.8281867 72.76,19.4659406 C71.527202,17.1661688 69.1293565,15.730907 66.52,15.730907 C63.9106435,15.730907 61.512798,17.1661688 60.28,19.4659406 C58.7276226,21.8281867 56.7869249,23.9108867 54.54,25.6259406 C53.32,26.7759406 48.15,29.5259406 49.27,35.5259406 C49.8218624,38.8903021 52.6008926,41.4422198 56,41.7059406 C58.4109094,41.8081369 60.8230507,41.5348733 63.15,40.8959406 C65.3763194,40.402498 67.6836806,40.402498 69.91,40.8959406 C72.2174783,41.5296545 74.6090479,41.8028804 77,41.7059406 C80.3975843,41.4387192 83.1747792,38.8884868 83.73,35.5259406 C84.89,29.5259406 79.72,26.7759406 78.5,25.6259406 Z M65,37.9159406 L59.8,37.9159406 C58.321476,38.0272997 56.867685,37.4897019 55.817331,36.4431883 C54.766977,35.3966747 54.2240575,33.9448627 54.33,32.4659406 C54.2904223,31.0574367 54.8353442,29.6953215 55.8354812,28.7027613 C56.8356181,27.7102012 58.2018378,27.1756532 59.61,27.2259406 L62.1,27.2259406 L62.1,22.6859406 L65,22.6859406 L65,37.9159406 Z M76.81,37.9159406 L70.81,37.9159406 C68.36,37.9159406 67.25,36.5959406 67.25,34.6559406 L67.25,27.1359406 L70.09,27.1359406 L70.09,33.7459406 C70.09,34.7459406 70.5,35.0859406 71.04,35.0859406 L74,35.0859406 L74,27.1359406 L76.85,27.1359406 L76.81,37.9159406 Z" id="Shape" fill="#2932E1"></path>
            <path d="M57.24,32.5659406 C57.2125709,33.2257437 57.4570907,33.8678981 57.9164227,34.3423521 C58.3757547,34.8168061 59.0096547,35.0819908 59.67,35.0759406 L62.1,35.0759406 L62.1,30.0059406 L59.59,30.0059406 C58.9315496,30.0123525 58.3051811,30.2912753 57.8598857,30.7763631 C57.4145903,31.2614508 57.1901676,31.9093473 57.24,32.5659406 Z" id="Path" fill="#2932E1"></path>
            <path d="M39.4,40.4559406 L44,40.4559406 L44,24.5959406 L39.4,24.5959406 L39.4,40.4559406 Z M39.4,18.8059406 L39.4,22.8059406 L44,22.8059406 L44,18.8059406 L39.4,18.8059406 Z" id="Shape" fill="#E10602"></path>
            <path d="M32.72,37.3659406 L26.6,37.3659406 C26.1662924,37.3690345 25.7521949,37.1854852 25.4632174,36.86206 C25.1742398,36.5386348 25.0382874,36.1065654 25.09,35.6759406 C25.0765432,35.2411423 25.2385155,34.8192007 25.539458,34.505092 C25.8404005,34.1909833 26.2550241,34.0111029 26.69,34.0059406 L32.69,34.0059406 L32.72,37.3659406 Z M31.88,24.5859406 L22,24.5859406 L22,27.9159406 L30.66,27.9159406 C31.91,27.9159406 32.72,28.5859406 32.72,29.7159406 L32.72,30.8859406 L25.49,30.8859406 C24.1960255,30.783108 22.9226727,31.2568829 22.0106128,32.1805123 C21.0985528,33.1041417 20.6408656,34.3833651 20.76,35.6759406 C20.76,39.0059406 22.76,40.5059406 25.49,40.5059406 L37.18,40.5059406 L37.18,29.1459406 C37.18,26.4259406 35,24.5859406 31.88,24.5859406 Z" id="Shape" fill="#E10602"></path>
            <path d="M11.14,27.5259406 L4.84,27.5259406 L4.84,23.0059406 L11.12,23.0059406 C12.89,23.0059406 13.94,23.8359406 13.94,25.1659406 C13.94,26.8959406 12.89,27.5259406 11.14,27.5259406 Z M11.41,36.6059406 L4.84,36.6059406 L4.84,31.8559406 L11.38,31.8559406 C13.09,31.8559406 14.27,32.7459406 14.27,34.2759406 C14.27,35.8059406 13.12,36.6059406 11.41,36.6059406 Z M19.65,34.8859406 C19.65,32.2759406 18.35,30.3059406 16.3,29.6959406 C18.13,28.9159406 18.89,27.3559406 18.89,24.8459406 C18.89,21.5659406 16.15,18.6659406 10.56,18.6659406 L0,18.6659406 L0,40.6660877 L11.68,40.6660877 C16.89,40.6859406 19.65,38.6659406 19.65,34.8859406 Z" id="Shape" fill="#E10602"></path>
            <path d="M105.07,27.8859406 L105.07,31.0059406 L93,31.0059406 L93,27.8859406 L105.07,27.8859406 Z M105.07,36.3859406 C105.108459,36.6399803 105.03266,36.8980282 104.862922,37.0909123 C104.693184,37.2837964 104.446868,37.3917886 104.19,37.3859406 L93,37.3859406 L93,34.0859406 L105.1,34.0859406 L105.07,36.3859406 Z M110,22.5259406 L110,19.2259406 L88,19.2259406 L88,22.5659406 L96.32,22.5659406 L95.6,24.7559406 L89,24.7559406 L89,40.5959406 L106,40.5959406 C106.794714,40.7007336 107.594308,40.4415558 108.17643,39.8904799 C108.758553,39.3394039 109.061122,38.5551999 109,37.7559406 L109,24.7559406 L100.19,24.7559406 L100.91,22.5259406 L110,22.5259406 Z" id="Shape" fill="#E10602"></path>
            <path d="M131.87,22.7059406 L128.57,22.7059406 L128.57,23.4859406 L121.76,23.4859406 L121.76,22.7059406 L118.45,22.7059406 L118.45,23.4859406 L116.51,23.4859406 L116.51,26.2059406 L118.45,26.2059406 L118.45,30.4859406 L130.32,30.4859406 C130.732824,30.4859406 131.128596,30.3212741 131.419566,30.0284263 C131.710537,29.7355785 131.872663,29.3387561 131.87,28.9259406 L131.87,26.2059406 L133.82,26.2059406 L133.82,23.4859406 L131.87,23.4859406 L131.87,22.7059406 Z M128.57,27.1759406 C128.57,27.5017886 128.305848,27.7659406 127.98,27.7659406 L121.76,27.7659406 L121.76,26.2059406 L128.57,26.2059406 L128.57,27.1759406 Z" id="Shape" fill="#E10602"></path>
            <path d="M125.84,19.2059406 L125.84,18.0059406 L122,18.0059406 L122,19.2059406 L112.47,19.2059406 L112.47,35.3459406 C112.586203,37.1358432 112.302686,38.9291767 111.64,40.5959406 L115.16,40.5959406 C115.609276,38.8831878 115.817945,37.1162318 115.78,35.3459406 L115.78,21.9259406 L133.87,21.9259406 L133.87,19.2059406 L125.84,19.2059406 Z" id="Path" fill="#E10602"></path>
            <path d="M128.25,37.2959406 C130.45,36.1159406 133.04,34.6459406 133.04,34.6459406 L133.04,31.6459406 L117.09,31.6459406 L117.09,34.6459406 C117.09,34.6459406 119.68,36.1159406 121.87,37.2959406 C121.162757,37.6018109 120.415034,37.8038983 119.65,37.8959406 L116.31,37.8959406 L116.31,40.5959406 L120,40.5959406 C120.4,40.5959406 121.48,40.5959406 125.06,38.9059406 L125.06,38.9059406 C128.64,40.5959406 129.72,40.5959406 130.12,40.5959406 L133.81,40.5959406 L133.81,37.8959406 L130.47,37.8959406 C129.705178,37.802808 128.957609,37.6007622 128.25,37.2959406 L128.25,37.2959406 Z M125.06,35.9159406 C125.06,35.9159406 122.32,34.6859406 121.26,34.0959406 L128.87,34.0959406 C127.81,34.6859406 125.06,35.9159406 125.06,35.9159406 Z" id="Shape" fill="#E10602"></path>
            <polygon id="Path" fill="#636466" points="160.05 39.5059406 144.83 39.5059406 144.83 19.6259406 159.66 19.6259406 159.66 22.1459406 147.93 22.1459406 147.93 28.0659406 159 28.0659406 159 30.5859406 147.93 30.5859406 147.93 37.0859406 160.05 37.0859406"></polygon>
            <path d="M181.39,39.5059406 L177.51,39.5059406 L171.4,31.2659406 L166.84,31.2659406 L166.84,39.5059406 L163.84,39.5059406 L163.84,19.6259406 L173.06,19.6259406 C177.52,19.7526073 179.876667,21.659274 180.13,25.3459406 C180.13,28.7159406 178.29,30.6159406 174.61,31.0759406 L181.39,39.5059406 Z M166.84,22.0559406 L166.84,28.8459406 L172.37,28.8459406 C175.47,28.8459406 176.99,27.7059406 176.93,25.4459406 C176.87,23.1859406 175.41,22.0559406 172.37,22.0559406 L166.84,22.0559406 Z" id="Shape" fill="#636466"></path>
            <path d="M192,32.0059406 L187,32.0059406 L187,39.5059406 L183.9,39.5059406 L183.9,19.6259406 L192.34,19.6259406 C196.8,19.8259406 199.156667,21.8259406 199.41,25.6259406 C199.29,29.839274 196.82,31.9659406 192,32.0059406 Z M191.62,22.0059406 L186.96,22.0059406 L186.96,29.5659406 L191.62,29.5659406 C194.62,29.5059406 196.11,28.2059406 196.17,25.6859406 C196,23.3459406 194.48,22.1159406 191.57,22.0559406 L191.62,22.0059406 Z" id="Shape" fill="#636466"></path>
        </g>
    </g>
</svg>