<?xml version="1.0" encoding="UTF-8"?>
<svg width="203px" height="42px" viewBox="0 0 203 42" version="1.1" xmlns="http://www.w3.org/2000/svg"
     xmlns:xlink="http://www.w3.org/1999/xlink">
    <!-- Generator: Sketch 55.2 (78181) - https://sketchapp.com -->
    <title>baidu-erp-logo</title>
    <desc>Created with Sketch.</desc>
    <g id="Page-1" stroke="none" stroke-width="1" fill="none" fill-rule="evenodd">
        <g id="Group" transform="translate(-0.000000, -0.000000)" fill-rule="nonzero">
            <rect id="矩形" fill="#D8D8D8" opacity="0" x="1.70530257e-13" y="8.3730356e-11" width="202.574586"
                  height="42"></rect>
            <path d="M57.4820354,32.6980734 C57.4820354,31.3700845 58.3763337,30.1697198 59.8442453,30.1697198 L62.3651735,30.1697198 L62.3642453,35.2183055 L59.9171072,35.2183055 C58.4308641,35.2183055 57.4820354,34.0330237 57.4820354,32.6980734 Z M77.1779238,38.0689685 L77.1779238,27.2450348 L74.3172829,27.2450348 L74.3198354,35.2241066 L71.3714818,35.2241066 C70.8294265,35.2241066 70.4147635,34.921753 70.4147635,33.8798745 L70.4147635,27.2450348 L67.5668851,27.2450348 L67.5668851,34.8013221 C67.5668851,36.7467806 68.6820895,38.0689685 71.1371171,38.0689685 L77.1779238,38.0689685 Z M65.3102552,38.0689685 L65.3102552,22.7753994 L62.3665425,22.7753994 L62.3656144,27.3362281 L59.8630177,27.3362281 C56.6983989,27.3362281 54.5591834,29.6548138 54.5591834,32.601079 C54.5591834,35.8148911 56.5672939,38.0689685 60.0574707,38.0689685 L62.363526,38.0689685 L64.2890287,38.0689685 L65.3102552,38.0689685 Z M78.8300785,25.723985 C80.056432,26.8828138 85.2505094,29.6408911 84.1192939,35.6677751 C83.0031613,41.6153 77.3695923,41.8809906 77.3695923,41.8809906 C77.3695923,41.8809906 74.7340343,42.161764 70.1950177,41.0665154 C68.9586862,40.7943276 67.8098354,40.6957088 66.8004431,40.6885154 C65.7912829,40.6957088 64.6422,40.7943276 63.4056365,41.0665154 C58.8668519,42.161764 56.2310619,41.8809906 56.2310619,41.8809906 C56.2310619,41.8809906 50.5979569,41.6153 49.4818243,35.6677751 C48.3503768,29.6408911 53.5442221,26.8828138 54.7710398,25.723985 C55.7521227,24.7967364 58.4716807,22.9617308 60.5373381,19.539775 C61.9270508,17.2782723 64.2943657,15.7493331 66.8004431,15.8003828 C69.3065204,15.7493331 71.6736033,17.2782723 73.0637801,19.539775 C75.1292055,22.9617308 77.8487635,24.7967364 78.8300785,25.723985 Z M52.7285171,22.2121353 C49.147611,22.704069 46.9770696,19.6232181 46.9598983,16.4961905 C46.9417989,13.2078922 48.6986055,10.4092071 51.5439315,10.1518701 C54.5011028,9.88455516 56.2999094,12.933848 56.5797547,15.6102458 C56.8960309,18.6367983 55.8191138,21.7877264 52.7285171,22.2121353 Z M61.344063,12.4627518 C57.9494884,12.7845971 55.6167481,9.88195626 55.7285934,6.2444314 C55.8357978,2.76330433 57.9383503,0.145381682 60.5442066,0.00638720733 C63.4746928,-0.149546494 65.3335989,2.56977947 65.4134221,5.95994521 C65.486284,9.03940378 64.3989249,12.1729286 61.344063,12.4627518 Z M82.0569547,10.1519397 C84.9022807,10.4092767 86.6590873,13.2077297 86.6409878,16.4962601 C86.6238166,19.6230557 84.4532751,22.7039065 80.8726011,22.2122049 C77.7815403,21.787796 76.7048552,18.6368679 77.0213635,15.6103154 C77.3012088,12.9339176 79.1000155,9.88462477 82.0569547,10.1519397 Z M72.2569392,12.4627518 C69.2018453,12.1729286 68.1144862,9.03940378 68.1873481,5.95994521 C68.2674033,2.56977947 70.1263094,-0.149546494 73.0565635,0.00638720733 C75.6624199,0.145381682 77.7649724,2.76330433 77.8721768,6.2444314 C77.9842541,9.88195626 75.6515138,12.7845971 72.2569392,12.4627518 Z M39.5682928,22.9285949 L39.5682928,18.8801198 L44.2170663,18.8801198 L44.2170663,22.9285949 L39.5682928,22.9285949 Z M39.5682928,40.6201088 L39.5682928,24.6960756 L44.2170663,24.6960756 L44.2170663,40.6201088 L39.5682928,40.6201088 Z M32.0106365,24.6840558 C35.1645812,24.6840558 37.3362829,26.5297353 37.3362829,29.2627519 L37.3362829,40.6709729 L25.592758,40.6709729 C22.8339845,40.6709729 20.8446696,39.1610613 20.8446696,35.8182326 C20.8446696,32.6988624 22.7980177,31.0132933 25.592758,31.0132933 L32.8601503,31.0132933 L32.8601503,29.8342768 C32.8601503,28.7023651 32.044979,28.0289729 30.7924044,28.0289729 L22.0914431,28.0289729 L22.0914431,24.6840558 L32.0106365,24.6840558 Z M32.8601503,37.521437 L32.8601503,34.1055143 L26.8077414,34.1055143 C25.8619293,34.1055143 25.198747,34.8717243 25.198747,35.8182326 C25.198747,36.9185861 25.8644818,37.521437 26.7139956,37.521437 L32.8601503,37.521437 Z M19.7286298,35.0262193 C19.7286298,38.8245508 16.9633591,40.8516889 11.7272818,40.8516889 L0,40.8516889 L0,18.7357883 L10.6041878,18.7357883 C16.2191934,18.7357883 18.9698453,21.647711 18.9698453,24.9462193 C18.9698453,27.4690038 18.2036354,29.029037 16.3697901,29.811258 C18.4324309,30.4289596 19.7286298,32.4024955 19.7286298,35.0262193 Z M11.4601989,36.751932 C13.1708287,36.751932 14.3287293,35.9439541 14.3287293,34.4122303 C14.3287293,32.8800425 13.1429834,31.9829596 11.4277127,31.9829596 L4.8641105,31.9829596 L4.8641105,36.751932 L11.4601989,36.751932 Z M11.1870829,27.6409486 C12.9455138,27.6409486 13.9994586,27.0032911 13.9994586,25.2207276 C13.9994586,23.883921 12.9480663,23.0504181 11.1706077,23.0504181 L4.8641105,23.0504181 L4.8641105,27.6409486 L11.1870829,27.6409486 Z M110.443618,22.6182126 L101.283673,22.6182126 L100.558535,24.8541906 L109.405916,24.8541906 L109.405916,37.908069 C109.405916,39.7416823 108.239198,40.7647651 106.47891,40.7647651 L89.3809657,40.7647651 L89.3809657,24.8541906 L96.0415624,24.8541906 L96.7653083,22.6551076 L88.4093967,22.6551076 L88.4093967,19.3041574 L110.443618,19.3041574 L110.443618,22.6182126 Z M105.539131,36.5336712 L105.539131,34.2129972 L93.3728221,34.2129972 L93.3728221,37.5319254 L104.663165,37.5319254 C105.197098,37.5319254 105.539131,37.1697044 105.539131,36.5336712 Z M93.3728221,31.0822569 L105.517551,31.0822569 L105.517551,27.9990856 L93.3728221,27.9990856 L93.3728221,31.0822569 Z M129.108696,27.2877541 L129.108696,26.3113121 L122.272674,26.3113121 L122.272674,27.8736657 L128.522785,27.8736657 C128.846254,27.8736657 129.108696,27.6114558 129.108696,27.2877541 Z M132.429249,22.7953784 L132.429249,23.5766712 L134.382365,23.5766712 L134.382365,26.3113121 L132.429249,26.3113121 L132.429249,29.0454889 C132.429249,29.9084613 131.729403,30.6080745 130.866663,30.6080745 L130.671282,30.6080745 L129.108696,30.6080745 L122.272674,30.6080745 L119.312022,30.6080745 L118.952122,30.6080745 L118.952122,26.3113121 L116.999006,26.3113121 L116.999006,23.5766712 L118.952122,23.5766712 L118.952122,22.7953784 L122.272674,22.7953784 L122.272674,23.5766712 L129.108696,23.5766712 L129.108696,22.7953784 L132.429249,22.7953784 Z M126.374241,19.2797231 L134.382318,19.2797231 L134.382318,22.014132 L116.217666,22.014132 L116.217666,35.491027 C116.217666,37.7961541 115.961257,39.502143 115.59718,40.7646955 L112.065699,40.7646955 C112.418871,40.042806 112.897346,38.5103861 112.897346,35.491027 L112.897346,22.014132 L112.897346,19.2797231 L116.217666,19.2797231 L122.468009,19.2797231 L122.468009,18.1078999 L126.374241,18.1078999 L126.374241,19.2797231 Z M125.593134,36.0576093 C125.593366,36.0578414 128.352835,34.822206 129.416062,34.2383828 L121.769973,34.2383828 C122.8332,34.822206 125.59267,36.0578414 125.593134,36.0576093 Z M128.796968,37.4438414 C129.79499,37.8209132 130.594382,38.0501729 131.030393,38.0501729 L134.382272,38.0501729 L134.382272,40.7646259 L130.679543,40.7646259 C130.27973,40.7646259 129.192139,40.7643939 125.593598,39.0655983 C125.593366,39.0655983 125.593134,39.0655983 125.593134,39.0658303 C125.592902,39.0655983 125.59267,39.0655983 125.592438,39.0655983 C121.993896,40.7643939 120.906305,40.7646259 120.506493,40.7646259 L116.803764,40.7646259 L116.803764,38.0501729 L120.155642,38.0501729 C120.591653,38.0501729 121.391045,37.8209132 122.389299,37.4438414 C120.185808,36.2669132 117.585056,34.7892558 117.585056,34.7892558 L117.585056,31.7798745 L133.600979,31.7798745 L133.600979,34.7892558 C133.600979,34.7892558 131.000228,36.2669132 128.796968,37.4438414 Z M162.233678,39.6693773 L146.579745,39.6693773 L146.579745,19.229532 L161.834794,19.229532 L161.834794,21.8219297 L149.770352,21.8219297 L149.770352,27.9040403 L161.136806,27.9040403 L161.136806,30.4964381 L149.770352,30.4964381 L149.770352,37.1767585 L162.233678,37.1767585 L162.233678,39.6693773 Z M169.213127,21.7221971 L169.213127,28.7016226 L174.896354,28.7016226 C178.086961,28.7016226 179.648155,27.5393132 179.582718,25.2119099 C179.582718,22.8858988 178.019901,21.7221971 174.896354,21.7221971 L169.213127,21.7221971 Z M184.169072,39.6694237 L180.180928,39.6694237 L173.89926,31.1942414 L169.213127,31.1942414 L169.213127,39.6694237 L166.122298,39.6694237 L166.122298,19.2295784 L175.594343,19.2295784 C180.180928,19.3634679 182.606486,21.3233132 182.872873,25.1121309 C182.872873,28.5691254 180.978464,30.530595 177.189646,30.9949154 L184.169072,39.6694237 Z M194.63828,21.7221971 L189.852368,21.7221971 L189.852368,29.4993906 L194.63828,29.4993906 C197.694998,29.4337221 199.257351,28.1034127 199.324412,25.5110149 C199.190523,23.0525065 197.629561,21.7892579 194.63828,21.7221971 Z M195.037164,31.9920093 L189.852368,31.9920093 L189.852368,39.6694237 L186.66176,39.6694237 L186.66176,19.2295784 L195.336269,19.2295784 C199.922622,19.4289043 202.348412,21.4901529 202.614799,25.4112359 C202.547738,29.732827 200.022401,31.9265729 195.037164,31.9920093 Z"
                  id="百度erp" fill="#FFFFFF"></path>
        </g>
    </g>
</svg>