<?xml version="1.0" encoding="UTF-8"?>
<svg width="23px" height="23px" viewBox="0 0 23 23" version="1.1" xmlns="http://www.w3.org/2000/svg" xmlns:xlink="http://www.w3.org/1999/xlink">
    <!-- Generator: Sketch 47.1 (45422) - http://www.bohemiancoding.com/sketch -->
    <title>checked</title>
    <desc>Created with Sketch.</desc>
    <defs></defs>
    <g id="Page-1" stroke="none" stroke-width="1" fill="none" fill-rule="evenodd">
        <g id="续签批次选择-收起状态" transform="translate(-337.000000, -662.000000)">
            <g id="移动端-续-签合同审批-单据信息">
                <g id="续签批次选择" transform="translate(0.000000, 579.000000)">
                    <g id="checked" transform="translate(0.000000, 61.000000)">
                        <g transform="translate(337.000000, 22.000000)">
                            <circle id="Oval-Copy" fill="#2D85F2" fill-rule="nonzero" cx="11.5" cy="11.5" r="11.5"></circle>
                            <path d="M16.480625,9.207125 L10.537625,15.150125 C10.536625,15.151125 10.536625,15.152625 10.535625,15.153125 L10.182125,15.507125 C10.181125,15.507625 10.180125,15.508125 10.179125,15.509125 L10.177125,15.510625 C9.982125,15.706125 9.665625,15.706125 9.470125,15.510625 L9.116625,15.157125 C9.108625,15.149625 9.106125,15.139125 9.099125,15.131125 L6.146625,12.178125 C5.951125,11.983125 5.951125,11.666625 6.146625,11.471125 L6.500125,11.117625 C6.695125,10.922625 7.012125,10.922625 7.207125,11.117625 L9.828125,13.738625 L15.419625,8.146625 C15.615125,7.951125 15.931625,7.951125 16.127125,8.146625 L16.480625,8.500125 C16.675625,8.695625 16.675625,9.012125 16.480625,9.207125 Z" id="Shape-Copy" fill="#FFFFFF"></path>
                        </g>
                    </g>
                </g>
            </g>
        </g>
    </g>
</svg>