<!-- Generated by IcoMoon.io fill="#d74747"-->
<svg version="1.1" xmlns="http://www.w3.org/2000/svg" width="32" height="32" viewBox="0 0 32 32">
<title>alarm</title>
<path opacity="0.95" d="M5.333 0h21.333c2.946 0 5.333 2.388 5.333 5.333v21.333c0 2.946-2.388 5.333-5.333 5.333h-21.333c-2.946 0-5.333-2.388-5.333-5.333v-21.333c0-2.946 2.388-5.333 5.333-5.333z"></path>
<path fill="#fff" d="M15.972 12.804c-2.144 0-3.882 1.709-3.882 3.817v4.69h7.82v-4.69c0-2.108-1.739-3.817-3.882-3.817h-0.056zM11.465 15.089c0.069-0.337-0.153-0.665-0.495-0.733l-1.831-0.362c-0.343-0.068-0.677 0.15-0.745 0.487-0.015 0.074-0.015 0.146-0.006 0.216 0.039 0.252 0.233 0.464 0.502 0.517l1.831 0.362c0.345 0.068 0.677-0.15 0.745-0.487h-0zM11.045 10.919l1.166 1.434c0.218 0.269 0.616 0.311 0.89 0.097s0.317-0.606 0.099-0.875l-1.166-1.432c-0.218-0.269-0.616-0.311-0.89-0.097-0.183 0.144-0.263 0.366-0.23 0.58 0.017 0.104 0.060 0.205 0.131 0.292zM16.080 11.461c0.349 0.008 0.64-0.265 0.646-0.608l-0.004-1.836c0.009-0.343-0.269-0.629-0.618-0.635-0.349-0.008-0.64 0.265-0.648 0.608l0.004 1.834c0 0.036 0.002 0.074 0.006 0.108 0.047 0.297 0.302 0.523 0.614 0.53zM19.008 12.588c0.263 0.227 0.661 0.201 0.892-0.055l1.234-1.379c0.23-0.258 0.205-0.65-0.056-0.877-0.263-0.227-0.661-0.201-0.892 0.055l-1.234 1.379c-0.129 0.144-0.177 0.328-0.151 0.504 0.019 0.138 0.090 0.271 0.207 0.373zM23.612 14.835c-0.052-0.339-0.375-0.574-0.72-0.521l-1.846 0.275c-0.345 0.051-0.584 0.369-0.53 0.707 0.052 0.339 0.375 0.574 0.722 0.521l1.846-0.277c0.343-0.049 0.58-0.364 0.528-0.705zM21.292 22.734c0 0.489-0.403 0.885-0.901 0.885h-8.98c-0.498 0-0.901-0.396-0.901-0.885s0.403-0.885 0.901-0.885h8.977c0.5-0.002 0.903 0.396 0.903 0.885z"></path>
</svg>
