<svg id="图层_2" data-name="图层 2" xmlns="http://www.w3.org/2000/svg" viewBox="0 0 94.24 21.78">
    <defs>
        <style>.cls-1{fill:#fff;}</style>
    </defs>
    <title>影像中心</title>
    <path class="cls-1"
          d="M1.36,39.78,0,38.33a18.37,18.37,0,0,0,3.16-2.89L4.7,36.61C4,37.34,2.86,38.39,1.36,39.78ZM1.17,26.22V19.53H12.29v6.69H7.68L8,27.66h5.43v1.63H.09V27.66H5.87l-.27-.81q-.09-.36-.18-.63ZM1.45,35V30.47H12V35H8v2.8c.06,1.56-.66,2.35-2.17,2.35a19,19,0,0,1-2.16.09.76.76,0,0,0-.1-.27,8.15,8.15,0,0,0-.36-1.63c.67.06,1.21.09,1.63.09Q6,38.42,6,37.61V35Zm1.8-14v1.35h7V21Zm0,2.53v1.26h7V23.51ZM3.61,32v1.54H9.94V32Zm8,7.14c-.48-.48-1.3-1.2-2.44-2.17q1.26,1-.27-.27l1.44-1.26c.3.24.76.63,1.36,1.17L13,37.7l-.18.18a20.57,20.57,0,0,0,7.51-6.24l1.71,1.63a28.39,28.39,0,0,1-8.76,7L12,38.69Zm3-13.19a11.4,11.4,0,0,0-1.35-1.9A25.81,25.81,0,0,0,19.34,19L21,20.52A33.08,33.08,0,0,1,14.55,26Zm.09,6.69a12.55,12.55,0,0,0-.9-1.27,3.48,3.48,0,0,0-.45-.63A25.39,25.39,0,0,0,20,25.13l1.54,1.54A32.33,32.33,0,0,1,14.64,32.64Z"
          transform="translate(0 -18.63)"/>
    <path class="cls-1"
          d="M24.61,31.73A19.44,19.44,0,0,0,24,28.57a36.07,36.07,0,0,0,4.16-9.85l2.35.45a35,35,0,0,1-1.81,5.06v16H26.5V28.75A34.62,34.62,0,0,1,24.61,31.73ZM31,25.22q-.72-.81-1.44-1.53a15.63,15.63,0,0,0,5.06-5.06l2.44.27a6.67,6.67,0,0,0-.91,1.35h6.15v1.63l-1.63,1.81h4.25v5H43.59l1.26,1.54a20,20,0,0,1-2.44,1.44A9.77,9.77,0,0,0,46,37.34a6.14,6.14,0,0,0-1.18,1.53l-.18.18a11.42,11.42,0,0,1-3.89-6.5l-.9.54a13.51,13.51,0,0,1,.45,3.61q0,3.25-3.16,3.35H34.64c-.12-.73-.24-1.36-.36-1.9q1.08.09,2.07.09c1.33.06,2-.51,1.9-1.72V35.8a3.79,3.79,0,0,1-.09-.63,26.22,26.22,0,0,1-7.77,4.52c-.3-.55-.63-1.12-1-1.72a22.14,22.14,0,0,0,8.4-4.61,9,9,0,0,0-.45-1.09,19.25,19.25,0,0,1-7,4A7.65,7.65,0,0,0,29.67,35c.12.12.06,0-.18-.37a21.25,21.25,0,0,0,7.14-3.52,3.75,3.75,0,0,0-.55-.72A30.5,30.5,0,0,1,30.39,33a2.08,2.08,0,0,1-.27-.45,10.46,10.46,0,0,0-.72-1.18c3-.78,5-1.69,6.05-2.71H31.11V25.13ZM39.7,22h-5a8.93,8.93,0,0,1-1.09,1.09l-.63.63h5.15Zm-6.33,3.34V27h3.26a4.38,4.38,0,0,0,.54-1.72ZM38,28.66l-.36.45a11.71,11.71,0,0,1,1.63,2.26,44,44,0,0,0,4.25-2.71ZM42.68,27V25.31H39.34A13.91,13.91,0,0,1,38.89,27Z"
          transform="translate(0 -18.63)"/>
    <path class="cls-1"
          d="M49.39,34.17V23H57.8V18.63h2.62V23h8.4V34.08H66.29V32.91H60.42v7.5H57.8v-7.5H51.92v1.26Zm2.53-8.86v5.25H57.8V25.31Zm14.37,0H60.42v5.25h5.87Z"
          transform="translate(0 -18.63)"/>
    <path class="cls-1"
          d="M74.45,35a7.64,7.64,0,0,0-1.63-.64,6.62,6.62,0,0,1-.72-.27,86.23,86.23,0,0,0,2.44-8.58l2.44.72C76.2,29.23,75.35,32.15,74.45,35Zm7.23,4.51Q77.89,39.59,78,36V23.51h2.62V35.44c-.06,1.32.58,2,1.9,1.9h2.8a2,2,0,0,0,2.26-1.81,9.94,9.94,0,0,1,.09-1c.12-.84.22-1.5.28-2a6.56,6.56,0,0,1,1.26.45,9.14,9.14,0,0,1,1.27.45c-.18,1.33-.4,2.53-.64,3.61q-.45,2.53-4.06,2.44ZM85.2,25.59q-1.62-1.9-5.06-5.25l1.72-1.71a66.25,66.25,0,0,1,5.15,5Zm6.69,8c-1.08-2.23-2.35-4.7-3.79-7.41L90.27,25q1.62,2.89,4,7.32Z"
          transform="translate(0 -18.63)"/>
</svg>