<svg xmlns="http://www.w3.org/2000/svg" viewBox="0 0 768 768" fill="#999999">
    <path d="M734.3,701.15C721,565.44,630.55,452.37,507.44,406.26a207.67,207.67,0,0,0,83-166.27c0-114.87-93.12-208-208-208s-208,93.13-208,208a207.7,207.7,0,0,0,84.06,167.06C136.45,453.64,47,566.2,33.7,701.15A31.82,31.82,0,0,0,65.42,736h.28a31.94,31.94,0,0,0,31.72-28.94,288.12,288.12,0,0,1,552-83.14,285.18,285.18,0,0,1,21.19,83.14A31.94,31.94,0,0,0,702.3,736h.28A31.82,31.82,0,0,0,734.3,701.15Zm-453.67-563A144,144,0,1,1,238.45,240,143.05,143.05,0,0,1,280.63,138.17Z"/>
</svg>